<svg width="170" height="50" viewBox="0 0 170 50" fill="none" xmlns="http://www.w3.org/2000/svg">
<g clip-path="url(#clip0_49_37)">
<path d="M8.89435 31.8165H8.72898C8.76953 32.9836 8.57307 34.1468 8.15145 35.2359C7.72984 36.3249 7.09182 37.3172 6.27595 38.1527C5.46009 38.9883 4.4833 39.6497 3.40462 40.0972C2.32593 40.5446 1.16773 40.7687 0 40.756V40.9295C1.15709 40.8964 2.30871 41.1004 3.38402 41.5289C4.45932 41.9575 5.43556 42.6016 6.25268 43.4215C7.06979 44.2414 7.71049 45.2199 8.13536 46.2967C8.56022 47.3734 8.76027 48.5257 8.7232 49.6827H8.88857C8.85165 48.5251 9.05197 47.3722 9.47722 46.295C9.90246 45.2177 10.5436 44.2388 11.3613 43.4186C12.1789 42.5983 13.1558 41.954 14.2317 41.5254C15.3076 41.0967 16.4599 40.8927 17.6176 40.926V40.756C16.4504 40.7686 15.2929 40.5444 14.2148 40.0971C13.1367 39.6497 12.1605 38.9885 11.3452 38.1532C10.5299 37.318 9.89232 36.3262 9.47108 35.2377C9.04984 34.1491 8.85364 32.9865 8.89435 31.82" fill="#A57B1B"/>
<path d="M19.5361 18.6052H14.3575V0.795712H18.183C19.1745 0.798141 20.1635 0.89495 21.1366 1.08483C22.1763 1.31118 23.1728 1.70321 24.0879 2.24592C26.3477 3.55041 27.7134 6.36523 27.7134 9.66578C27.7778 10.9248 27.5781 12.1833 27.1272 13.3606C26.6763 14.5378 25.9841 15.6077 25.0952 16.5016C24.3788 17.3142 23.4451 17.9052 22.4041 18.2051C21.4733 18.4802 20.5067 18.6151 19.5361 18.6052ZM33.5513 24.997C32.8537 23.7577 31.9039 22.6786 30.763 21.8294C29.6014 20.964 28.3087 20.2901 26.934 19.8334C25.5964 19.3698 24.2065 19.0734 22.7962 18.951V18.8354C24.0931 18.6903 25.3633 18.3641 26.5697 17.8663C27.7274 17.396 28.8014 16.7415 29.75 15.928C30.6573 15.1473 31.4037 14.197 31.9473 13.1305C32.4934 12.0511 32.7741 10.857 32.766 9.64728C32.7436 8.60631 32.5534 7.57578 32.2028 6.59537C31.7771 5.39416 31.0622 4.31623 30.1212 3.45673C28.9121 2.36834 27.4962 1.53454 25.9579 1.00503C23.7851 0.266127 21.497 -0.07585 19.203 -0.00456013C18.6803 -0.00456013 8.73242 0.0243514 8.73242 0.0243514V26.4507H8.8978C8.87398 24.8614 9.38287 23.3098 10.3434 22.0434C11.0418 21.2399 11.8999 20.5905 12.8629 20.1365C13.8259 19.6826 14.8729 19.434 15.9372 19.4067H20.5526C20.5526 19.4067 24.1261 19.505 26.1568 21.4952C30.1062 25.3833 29.27 32.2145 28.2628 34.8339C27.2555 37.4533 25.4479 40.7561 20.8672 40.7561V40.9296C22.519 40.9594 24.1667 40.7554 25.7613 40.3236C27.6012 39.8147 29.3159 38.9308 30.7977 37.7273C32.0344 36.7469 33.0196 35.4858 33.6715 34.0486C34.3206 32.5653 34.6462 30.9608 34.6268 29.3418C34.6553 27.8269 34.2865 26.3309 33.557 25.0028" fill="#A57B1B"/>
<path d="M52.2915 12.8575H58.2924C61.7121 12.8575 63.4699 14.5414 63.4699 17.3307C63.483 17.9078 63.3783 18.4814 63.1624 19.0166C62.9465 19.5519 62.6238 20.0375 62.214 20.4439C63.006 20.6425 63.7074 21.1033 64.2043 21.7513C64.7011 22.3993 64.964 23.1964 64.9501 24.0128C64.9501 26.5246 63.4178 28.5345 59.5263 28.5345H52.2915V12.8575ZM54.9028 15.396V19.5153H59.8282C60.1451 19.2743 60.401 18.9623 60.5753 18.6043C60.7497 18.2464 60.8376 17.8526 60.832 17.4545C60.832 15.6203 59.4246 15.396 58.1189 15.396H54.9028ZM54.9028 22.0029V25.9961H59.2465C61.4854 25.9961 62.3123 25.219 62.3123 24.0128C62.3123 22.4539 61.0818 22.0029 58.9978 22.0029H54.9028Z" fill="white"/>
<path d="M77.9894 25.67H70.3024L68.9517 28.5346H66.0073L74.0459 12.4806H74.3477L82.3875 28.5346H79.3483L77.9894 25.67ZM74.1477 17.4811L71.4346 23.2634H76.8619L74.1477 17.4811Z" fill="white"/>
<path d="M91.6836 23.46H87.9389V28.5345H85.3276V12.8575H91.0533C95.2235 12.8575 97.2091 14.9681 97.2091 18.1588C97.2602 19.1496 97.0242 20.1341 96.5294 20.9941C96.0346 21.854 95.302 22.5529 94.4197 23.0067L99.0456 28.5345H95.752L91.6836 23.46ZM87.9389 15.396V20.9216H92.8377C93.3422 20.659 93.764 20.2619 94.0566 19.7743C94.3491 19.2866 94.5008 18.7274 94.4949 18.1588C94.4949 16.1731 93.3662 15.396 91.0255 15.396H87.9389Z" fill="white"/>
<path d="M108.342 23.46H104.599V28.5345H101.986V12.8575H107.712C111.883 12.8575 113.868 14.9681 113.868 18.1588C113.919 19.1496 113.683 20.1341 113.188 20.9941C112.693 21.854 111.961 22.5529 111.078 23.0067L115.704 28.5345H112.411L108.342 23.46ZM104.599 15.396V20.9216H109.498C110.002 20.659 110.424 20.2619 110.716 19.7743C111.009 19.2866 111.161 18.7274 111.155 18.1588C111.155 16.1731 110.026 15.396 107.685 15.396H104.599Z" fill="white"/>
<path d="M118.643 12.8575H121.254V28.5345H118.643V12.8575Z" fill="white"/>
<path d="M137.559 15.396V12.8587H133.455L132.673 10.8187H130.136L131.146 12.8587H126.206V28.5346H137.559V25.9961H128.818V21.8016H137.31V19.2655H128.818V15.396H137.559Z" fill="white"/>
<path d="M148.364 23.46H144.62V28.5345H142.009V12.8575H147.733C151.905 12.8575 153.889 14.9681 153.889 18.1588C153.94 19.1495 153.704 20.1339 153.21 20.9939C152.715 21.8538 151.983 22.5527 151.101 23.0067L155.727 28.5345H152.437L148.364 23.46ZM144.62 15.396V20.9216H149.519C150.023 20.659 150.445 20.2619 150.738 19.7743C151.03 19.2866 151.182 18.7274 151.176 18.1588C151.176 16.1731 150.047 15.396 147.707 15.396H144.62Z" fill="white"/>
<path d="M170.018 25.9961V28.5403H158.665V12.8575H170.018V15.396H161.276V19.2643H169.768V21.8016H161.276V25.9961H170.018Z" fill="white"/>
<path d="M56.5782 1.23866C56.1961 1.19865 55.8099 1.24159 55.446 1.36453C55.082 1.48748 54.7489 1.68754 54.4694 1.95104C54.1899 2.21455 53.9705 2.53529 53.8263 2.89135C53.6821 3.24742 53.6164 3.63041 53.6339 4.01417C53.6151 4.39715 53.6794 4.77966 53.8223 5.13547C53.9653 5.49128 54.1834 5.81198 54.4619 6.0756C54.7403 6.33922 55.0725 6.53952 55.4356 6.66277C55.7987 6.78602 56.1841 6.82932 56.5655 6.78968C57.5263 6.79244 58.452 6.42845 59.1537 5.77199L59.3988 7.07186C58.5626 7.72186 57.5259 8.06006 56.4672 8.02825C55.9232 8.06691 55.3772 7.99091 54.8645 7.80518C54.3518 7.61945 53.8838 7.32812 53.4908 6.95006C53.0978 6.572 52.7886 6.11562 52.5831 5.61048C52.3777 5.10534 52.2806 4.56268 52.2981 4.01764C52.2796 3.47244 52.3759 2.92944 52.5806 2.4238C52.7853 1.91817 53.094 1.46117 53.4866 1.08242C53.8792 0.703674 54.347 0.411616 54.8596 0.225167C55.3723 0.038718 55.9184 -0.0379638 56.4626 8.86302e-05C57.5213 -0.0317221 58.5579 0.306475 59.3942 0.956483L59.149 2.25635C58.4522 1.60329 57.5332 1.2395 56.5782 1.23866Z" fill="white"/>
<path d="M66.2272 6.43918H62.4756L61.813 7.83735H60.3755L64.3005 0H64.4485L68.3736 7.83735H66.8887L66.2272 6.43918ZM64.3491 2.44014L63.0261 5.2619H65.6744L64.3491 2.44014Z" fill="white"/>
<path d="M75.4167 5.76504C75.4167 7.01633 74.3122 8.0213 72.3867 8.0213C71.7045 8.07385 71.0228 7.91283 70.4362 7.56056C69.8495 7.20829 69.387 6.68223 69.1128 6.05531L70.038 5.0862C70.15 5.6169 70.4485 6.08984 70.8795 6.41917C71.3105 6.74849 71.8453 6.91236 72.3867 6.88103C73.7236 6.88103 74.1654 6.34096 74.1654 5.76504C74.1654 4.10899 69.9466 4.63633 69.9466 2.04817C69.9608 1.74927 70.0367 1.45654 70.1695 1.18841C70.3024 0.920275 70.4893 0.682539 70.7185 0.490162C70.9477 0.297784 71.2142 0.154928 71.5013 0.0705837C71.7884 -0.0137604 72.0899 -0.0377671 72.3867 7.42381e-05C72.8606 -0.0231282 73.331 0.0921326 73.7405 0.331788C74.15 0.571443 74.4809 0.925126 74.6927 1.34967L73.9202 2.33035C73.8399 1.98618 73.6437 1.6801 73.3645 1.46343C73.0853 1.24676 72.7401 1.13269 72.3867 1.14035C71.5899 1.14035 71.2303 1.54511 71.2303 2.04817C71.2337 3.5932 75.4167 3.06586 75.4167 5.76504Z" fill="white"/>
<path d="M77.0117 0.18396H78.2838V7.83743H77.0117V0.18396Z" fill="white"/>
<path d="M87.9782 7.95992L82.0202 2.70842V7.83733H80.748V0.0612793H80.8949L86.8495 5.2989V0.183864H88.1217V7.95992H87.9782Z" fill="white"/>
<path d="M90.0918 4.01062C90.1172 2.9411 90.5599 1.92393 91.3253 1.17649C92.0908 0.42905 93.1182 0.0106201 94.188 0.0106201C95.2578 0.0106201 96.2852 0.42905 97.0506 1.17649C97.816 1.92393 98.2588 2.9411 98.2842 4.01062C98.2588 5.08015 97.816 6.09732 97.0506 6.84476C96.2852 7.5922 95.2578 8.01063 94.188 8.01063C93.1182 8.01063 92.0908 7.5922 91.3253 6.84476C90.5599 6.09732 90.1172 5.08015 90.0918 4.01062ZM91.4159 4.01062C91.3971 4.38632 91.4549 4.76192 91.5857 5.11461C91.7165 5.46729 91.9177 5.7897 92.177 6.06226C92.4362 6.33482 92.7482 6.55183 93.0939 6.70012C93.4396 6.8484 93.8118 6.92487 94.188 6.92487C94.5642 6.92487 94.9364 6.8484 95.2821 6.70012C95.6278 6.55183 95.9398 6.33482 96.199 6.06226C96.4583 5.7897 96.6594 5.46729 96.7902 5.11461C96.9211 4.76192 96.9788 4.38632 96.96 4.01062C96.9788 3.63493 96.9211 3.25933 96.7902 2.90664C96.6594 2.55396 96.4583 2.23155 96.199 1.95899C95.9398 1.68643 95.6278 1.46942 95.2821 1.32113C94.9364 1.17285 94.5642 1.09638 94.188 1.09638C93.8118 1.09638 93.4396 1.17285 93.0939 1.32113C92.7482 1.46942 92.4362 1.68643 92.177 1.95899C91.9177 2.23155 91.7165 2.55396 91.5857 2.90664C91.4549 3.25933 91.3971 3.63493 91.4159 4.01062Z" fill="white"/>
<path d="M51.9434 35.2212V34.1642H57.898V35.2166H55.4613V40.6612H54.38V35.2212H51.9434Z" fill="white"/>
<path d="M61.8834 38.5587H60.3326V40.6623H59.249V34.1642H61.6232C63.351 34.1642 64.1675 35.0385 64.1675 36.3615C64.1888 36.7721 64.091 37.1802 63.8858 37.5366C63.6806 37.893 63.3768 38.1825 63.011 38.3702L64.9261 40.6612H63.5707L61.8834 38.5587ZM60.3326 35.2177V37.5075H62.3599C62.5693 37.3991 62.7444 37.2346 62.8657 37.0324C62.987 36.8303 63.0497 36.5984 63.0468 36.3626C63.0468 35.5392 62.5843 35.2177 61.6105 35.2177H60.3326Z" fill="white"/>
<path d="M65.4529 37.4175C65.4382 36.7267 65.6297 36.0472 66.0028 35.4656C66.3759 34.8841 66.9138 34.4268 67.5478 34.1523C68.1819 33.8777 68.8834 33.7983 69.5628 33.9241C70.2422 34.0499 70.8687 34.3752 71.3624 34.8586C71.8561 35.342 72.1947 35.9615 72.3348 36.6381C72.475 37.3146 72.4104 38.0176 72.1494 38.6574C71.8883 39.2971 71.4426 39.8446 70.869 40.2299C70.2955 40.6152 69.6202 40.821 68.9293 40.8209C68.4702 40.8555 68.009 40.7917 67.5764 40.6339C67.1439 40.4761 66.75 40.2279 66.421 39.9058C66.092 39.5837 65.8355 39.1951 65.6686 38.766C65.5017 38.337 65.4281 37.8772 65.4529 37.4175ZM66.577 37.4175C66.5832 37.8816 66.7265 38.3335 66.9888 38.7164C67.2512 39.0994 67.6209 39.3961 68.0515 39.5694C68.4821 39.7428 68.9544 39.7849 69.4088 39.6905C69.8633 39.5961 70.2797 39.3694 70.6057 39.0389C70.9316 38.7085 71.1526 38.289 71.2408 37.8333C71.3289 37.3776 71.2804 36.906 71.1012 36.4778C70.922 36.0496 70.6202 35.6839 70.2338 35.4268C69.8473 35.1697 69.3934 35.0327 68.9293 35.0328C68.6127 35.014 68.2957 35.0631 67.9996 35.1767C67.7035 35.2904 67.4351 35.466 67.2124 35.6918C66.9897 35.9175 66.8178 36.1883 66.7082 36.4859C66.5986 36.7836 66.5539 37.1012 66.577 37.4175Z" fill="white"/>
<path d="M79.162 40.1026C78.512 40.5914 77.7152 40.8446 76.9023 40.8208C76.5193 40.8815 76.1274 40.8525 75.7574 40.7362C75.3875 40.6199 75.0496 40.4193 74.7702 40.1504C74.4908 39.8814 74.2776 39.5513 74.1473 39.1861C74.017 38.8208 73.9732 38.4303 74.0192 38.0453V34.1642H75.1017V37.9019C75.1017 39.1613 75.6533 39.7649 76.952 39.7649C77.7045 39.7838 78.4353 39.5117 78.992 39.0051V34.1642H80.0756V40.6612H79.0973L79.162 40.1026Z" fill="white"/>
<path d="M81.2192 34.1642H82.4069L84.6146 38.797L86.8211 34.1642H88.0077L84.6667 40.8162H84.5637L81.2192 34.1642Z" fill="white"/>
<path d="M89.2573 34.1642H90.3398V40.6612H89.2573V34.1642Z" fill="white"/>
<path d="M96.9174 39.6134V40.6658H92.4199V34.1642H93.5024V39.6088L96.9174 39.6134Z" fill="white"/>
<path d="M102.975 39.6134V40.6658H98.4771V34.1642H99.5607V39.6088L102.975 39.6134Z" fill="white"/>
<path d="M109.241 39.6134V40.6658H104.534V34.1642H109.241V35.2166H105.618V36.824H109.137V37.8753H105.618V39.61L109.241 39.6134Z" fill="white"/>
</g>
<defs>
<clipPath id="clip0_49_37">
<rect width="170" height="49.7279" fill="white"/>
</clipPath>
</defs>
</svg>
